<svg xmlns="http://www.w3.org/2000/svg" style="display:none">
  <symbol id="icon-layout" viewBox="0 0 24 24">
    <rect x="3" y="3" width="18" height="18" rx="2" fill="none" stroke="currentColor" stroke-width="2"/>
    <line x1="3" y1="9" x2="21" y2="9" stroke="currentColor" stroke-width="2"/>
    <line x1="9" y1="9" x2="9" y2="21" stroke="currentColor" stroke-width="2"/>
  </symbol>

  <symbol id="icon-text" viewBox="0 0 24 24">
    <path d="M4 7V4h16v3M9 20h6M12 4v16" stroke="currentColor" stroke-width="2" stroke-linecap="round" fill="none"/>
  </symbol>

  <symbol id="icon-nav" viewBox="0 0 24 24">
    <path d="M4 6h16M4 12h16M4 18h16" stroke="currentColor" stroke-width="2" stroke-linecap="round"/>
  </symbol>

  <symbol id="icon-form" viewBox="0 0 24 24">
    <rect x="3" y="5" width="18" height="14" rx="2" fill="none" stroke="currentColor" stroke-width="2"/>
    <path d="M7 9h10M7 13h6" stroke="currentColor" stroke-width="2" stroke-linecap="round"/>
  </symbol>

  <symbol id="icon-media" viewBox="0 0 24 24">
    <rect x="3" y="3" width="18" height="18" rx="2" fill="none" stroke="currentColor" stroke-width="2"/>
    <circle cx="8" cy="8" r="2" fill="currentColor"/>
    <path d="M3 16l5-5 4 4 3-3 6 6" stroke="currentColor" stroke-width="2" fill="none"/>
  </symbol>

  <symbol id="icon-interactive" viewBox="0 0 24 24">
    <rect x="4" y="8" width="16" height="8" rx="4" fill="none" stroke="currentColor" stroke-width="2"/>
    <circle cx="16" cy="12" r="3" fill="currentColor"/>
  </symbol>

  <symbol id="icon-landmark" viewBox="0 0 24 24">
    <path d="M3 21h18M3 3h18M5 3v18M19 3v18M3 9h18M3 15h18" stroke="currentColor" stroke-width="1.5" fill="none"/>
  </symbol>
</svg>
