<svg xmlns="http://www.w3.org/2000/svg" style="display:none">
  <symbol id="icon-undo" viewBox="0 0 24 24">
    <path d="M3 10h10a5 5 0 015 5v0a5 5 0 01-5 5H9M3 10l4-4M3 10l4 4" stroke="currentColor" stroke-width="2" stroke-linecap="round" stroke-linejoin="round" fill="none"/>
  </symbol>

  <symbol id="icon-redo" viewBox="0 0 24 24">
    <path d="M21 10H11a5 5 0 00-5 5v0a5 5 0 005 5h4M21 10l-4-4M21 10l-4 4" stroke="currentColor" stroke-width="2" stroke-linecap="round" stroke-linejoin="round" fill="none"/>
  </symbol>

  <symbol id="icon-zoom-in" viewBox="0 0 24 24">
    <circle cx="11" cy="11" r="7" fill="none" stroke="currentColor" stroke-width="2"/>
    <path d="M16 16l4 4M8 11h6M11 8v6" stroke="currentColor" stroke-width="2" stroke-linecap="round"/>
  </symbol>

  <symbol id="icon-zoom-out" viewBox="0 0 24 24">
    <circle cx="11" cy="11" r="7" fill="none" stroke="currentColor" stroke-width="2"/>
    <path d="M16 16l4 4M8 11h6" stroke="currentColor" stroke-width="2" stroke-linecap="round"/>
  </symbol>

  <symbol id="icon-export" viewBox="0 0 24 24">
    <path d="M12 3v12M12 15l-4-4M12 15l4-4M4 17v2a2 2 0 002 2h12a2 2 0 002-2v-2" stroke="currentColor" stroke-width="2" stroke-linecap="round" stroke-linejoin="round" fill="none"/>
  </symbol>

  <symbol id="icon-grid" viewBox="0 0 24 24">
    <rect x="3" y="3" width="7" height="7" fill="none" stroke="currentColor" stroke-width="2"/>
    <rect x="14" y="3" width="7" height="7" fill="none" stroke="currentColor" stroke-width="2"/>
    <rect x="3" y="14" width="7" height="7" fill="none" stroke="currentColor" stroke-width="2"/>
    <rect x="14" y="14" width="7" height="7" fill="none" stroke="currentColor" stroke-width="2"/>
  </symbol>

  <symbol id="icon-focus-order" viewBox="0 0 24 24">
    <circle cx="6" cy="6" r="3" fill="none" stroke="currentColor" stroke-width="2"/>
    <circle cx="18" cy="12" r="3" fill="none" stroke="currentColor" stroke-width="2"/>
    <circle cx="8" cy="18" r="3" fill="none" stroke="currentColor" stroke-width="2"/>
    <path d="M9 6l6 4.5M15.5 13.5L10.5 16.5" stroke="currentColor" stroke-width="1.5" stroke-dasharray="3,2"/>
    <text x="5" y="7.5" font-size="5" fill="currentColor" font-weight="bold">1</text>
    <text x="16.5" y="13.5" font-size="5" fill="currentColor" font-weight="bold">2</text>
    <text x="6.5" y="19.5" font-size="5" fill="currentColor" font-weight="bold">3</text>
  </symbol>
</svg>
